<?xml version="1.0" encoding="utf-8"?>
<!-- Generator: Adobe Illustrator 21.0.0, SVG Export Plug-In . SVG Version: 6.00 Build 0)  -->
<svg version="1.1" id="Layer_1" xmlns="http://www.w3.org/2000/svg" xmlns:xlink="http://www.w3.org/1999/xlink" x="0px" y="0px"
	 viewBox="0 0 78.8 78.8" style="enable-background:new 0 0 78.8 78.8;" xml:space="preserve">
<style type="text/css">
	.st0{fill:#232323;}
</style>
<g>
	<path class="st0" d="M39.4,0C17.7,0,0,17.7,0,39.4C0,49.6,3.9,59,10.3,66c0,0,0,0,0,0c7.2,7.9,17.6,12.8,29.1,12.8
		c11.5,0,21.9-4.9,29.1-12.8c0,0,0,0,0,0c6.4-7,10.3-16.3,10.3-26.6C78.8,17.7,61.1,0,39.4,0z M67.4,59.7c-0.3,0.4-0.6,0.8-0.9,1.2
		C60.1,68.9,50.4,74,39.4,74c-10.9,0-20.7-5.1-27.1-13.1c-0.3-0.4-0.6-0.8-0.9-1.2C7.3,54,4.9,47,4.9,39.4
		c0-19.1,15.5-34.6,34.6-34.6S74,20.4,74,39.4C74,47,71.5,54,67.4,59.7z"/>
	<path class="st0" d="M39.5,43.3c0.8,0,1.6-0.1,2.4-0.2c3.3-0.6,6.1-2.2,8.2-4.6c2.2-2.5,3.5-5.7,3.5-9.2c0-3.5-1.3-6.8-3.5-9.2
		c-2.1-2.4-5-4.1-8.2-4.6c-0.8-0.1-1.6-0.2-2.4-0.2c-7.8,0-14.1,6.3-14.1,14.1C25.4,37,31.7,43.3,39.5,43.3z"/>
	<path class="st0" d="M46.7,46.2c-0.1,0-0.2,0-0.2,0c-4.6-0.6-9.3-0.6-13.8,0c-0.1,0-0.2,0-0.2,0c-7.9,1-14.8,5.8-18.5,12.7
		c6,7.6,15.3,12.4,25.7,12.4c10.4,0,19.7-4.9,25.7-12.4C61.5,52,54.6,47.2,46.7,46.2z"/>
</g>
</svg>
